<svg xmlns="http://www.w3.org/2000/svg" width="96" height="96" viewBox="0 0 24 24"><g fill="#6C5CE7"><path d="M11.9998 21.9997C16.836 21.9997 20.7565 18.1159 20.7565 13.325C20.7565 8.53417 16.836 4.65039 11.9998 4.65039C7.16366 4.65039 3.24316 8.53417 3.24316 13.325C3.24316 18.1159 7.16366 21.9997 11.9998 21.9997Z" opacity=".5"/><path d="M11.9988 8.74671C12.4018 8.74671 12.7282 9.07023 12.7283 9.46937V13.026L14.9471 15.2233C15.232 15.5056 15.232 15.9634 14.9471 16.2457C14.6621 16.5278 14.2008 16.5278 13.9158 16.2457L11.4832 13.8366C11.3464 13.701 11.2693 13.5166 11.2693 13.3248V9.46937C11.2695 9.07031 11.596 8.74684 11.9988 8.74671Z"/><path d="M7.23516 2.10999C7.57686 1.89853 8.02644 2.00107 8.24004 2.33949C8.45358 2.67795 8.35013 3.12391 8.0086 3.33558L4.11602 5.74574C3.77434 5.95693 3.32465 5.85362 3.11114 5.51527C2.89758 5.17677 3.00097 4.73081 3.34258 4.51917L7.23516 2.10999Z"/><path d="M15.7596 2.33949C15.9732 2.00107 16.4228 1.89854 16.7645 2.10999L20.657 4.51917C20.9986 4.73081 21.102 5.17677 20.8885 5.51527C20.675 5.85362 20.2253 5.95693 19.8836 5.74574L15.991 3.33558C15.6495 3.12391 15.546 2.67794 15.7596 2.33949Z"/></g></svg>